<svg width="40" height="40" viewBox="0 0 40 40" fill="none" xmlns="http://www.w3.org/2000/svg">
    <path d="M20 24C20.3956 24 20.7822 23.8827 21.1111 23.6629C21.44 23.4432 21.6964 23.1308 21.8478 22.7654C21.9991 22.3999 22.0387 21.9978 21.9616 21.6098C21.8844 21.2219 21.6939 20.8655 21.4142 20.5858C21.1345 20.3061 20.7781 20.1156 20.3902 20.0384C20.0022 19.9613 19.6001 20.0009 19.2346 20.1522C18.8692 20.3036 18.5568 20.56 18.3371 20.8889C18.1173 21.2178 18 21.6044 18 22C18 22.5304 18.2107 23.0391 18.5858 23.4142C18.9609 23.7893 19.4696 24 20 24ZM30 24C30.3956 24 30.7822 23.8827 31.1111 23.6629C31.44 23.4432 31.6964 23.1308 31.8478 22.7654C31.9991 22.3999 32.0387 21.9978 31.9616 21.6098C31.8844 21.2219 31.6939 20.8655 31.4142 20.5858C31.1345 20.3061 30.7781 20.1156 30.3902 20.0384C30.0022 19.9613 29.6001 20.0009 29.2346 20.1522C28.8692 20.3036 28.5568 20.56 28.3371 20.8889C28.1173 21.2178 28 21.6044 28 22C28 22.5304 28.2107 23.0391 28.5858 23.4142C28.9609 23.7893 29.4696 24 30 24ZM20 32C20.3956 32 20.7822 31.8827 21.1111 31.6629C21.44 31.4432 21.6964 31.1308 21.8478 30.7654C21.9991 30.3999 22.0387 29.9978 21.9616 29.6098C21.8844 29.2219 21.6939 28.8655 21.4142 28.5858C21.1345 28.3061 20.7781 28.1156 20.3902 28.0384C20.0022 27.9613 19.6001 28.0009 19.2346 28.1522C18.8692 28.3036 18.5568 28.56 18.3371 28.8889C18.1173 29.2178 18 29.6044 18 30C18 30.5304 18.2107 31.0391 18.5858 31.4142C18.9609 31.7893 19.4696 32 20 32ZM30 32C30.3956 32 30.7822 31.8827 31.1111 31.6629C31.44 31.4432 31.6964 31.1308 31.8478 30.7654C31.9991 30.3999 32.0387 29.9978 31.9616 29.6098C31.8844 29.2219 31.6939 28.8655 31.4142 28.5858C31.1345 28.3061 30.7781 28.1156 30.3902 28.0384C30.0022 27.9613 29.6001 28.0009 29.2346 28.1522C28.8692 28.3036 28.5568 28.56 28.3371 28.8889C28.1173 29.2178 28 29.6044 28 30C28 30.5304 28.2107 31.0391 28.5858 31.4142C28.9609 31.7893 29.4696 32 30 32ZM10 24C10.3956 24 10.7822 23.8827 11.1111 23.6629C11.44 23.4432 11.6964 23.1308 11.8478 22.7654C11.9991 22.3999 12.0387 21.9978 11.9616 21.6098C11.8844 21.2219 11.6939 20.8655 11.4142 20.5858C11.1345 20.3061 10.7781 20.1156 10.3902 20.0384C10.0022 19.9613 9.60009 20.0009 9.23463 20.1522C8.86918 20.3036 8.55682 20.56 8.33706 20.8889C8.1173 21.2178 8 21.6044 8 22C8 22.5304 8.21071 23.0391 8.58579 23.4142C8.96086 23.7893 9.46957 24 10 24ZM34 4H32V2C32 1.46957 31.7893 0.960859 31.4142 0.585786C31.0391 0.210714 30.5304 0 30 0C29.4696 0 28.9609 0.210714 28.5858 0.585786C28.2107 0.960859 28 1.46957 28 2V4H12V2C12 1.46957 11.7893 0.960859 11.4142 0.585786C11.0391 0.210714 10.5304 0 10 0C9.46957 0 8.96086 0.210714 8.58579 0.585786C8.21071 0.960859 8 1.46957 8 2V4H6C4.4087 4 2.88258 4.63214 1.75736 5.75736C0.632141 6.88258 0 8.4087 0 10V34C0 35.5913 0.632141 37.1174 1.75736 38.2426C2.88258 39.3679 4.4087 40 6 40H34C35.5913 40 37.1174 39.3679 38.2426 38.2426C39.3679 37.1174 40 35.5913 40 34V10C40 8.4087 39.3679 6.88258 38.2426 5.75736C37.1174 4.63214 35.5913 4 34 4ZM36 34C36 34.5304 35.7893 35.0391 35.4142 35.4142C35.0391 35.7893 34.5304 36 34 36H6C5.46957 36 4.96086 35.7893 4.58579 35.4142C4.21071 35.0391 4 34.5304 4 34V16H36V34ZM36 12H4V10C4 9.46957 4.21071 8.96086 4.58579 8.58579C4.96086 8.21071 5.46957 8 6 8H34C34.5304 8 35.0391 8.21071 35.4142 8.58579C35.7893 8.96086 36 9.46957 36 10V12ZM10 32C10.3956 32 10.7822 31.8827 11.1111 31.6629C11.44 31.4432 11.6964 31.1308 11.8478 30.7654C11.9991 30.3999 12.0387 29.9978 11.9616 29.6098C11.8844 29.2219 11.6939 28.8655 11.4142 28.5858C11.1345 28.3061 10.7781 28.1156 10.3902 28.0384C10.0022 27.9613 9.60009 28.0009 9.23463 28.1522C8.86918 28.3036 8.55682 28.56 8.33706 28.8889C8.1173 29.2178 8 29.6044 8 30C8 30.5304 8.21071 31.0391 8.58579 31.4142C8.96086 31.7893 9.46957 32 10 32Z" fill="#E9E9E9"/>
</svg>
