<svg width="24" height="24" viewBox="0 0 24 24" fill="none" xmlns="http://www.w3.org/2000/svg">
    <path d="M20.33 17.657C20.44 17.291 20.5 16.902 20.5 16.5V7.5C20.5 6.43913 20.0786 5.42172 19.3284 4.67157C18.5783 3.92143 17.5609 3.5 16.5 3.5H7.5C6.43913 3.5 5.42172 3.92143 4.67157 4.67157C3.92143 5.42172 3.5 6.43913 3.5 7.5V16.57C3.51835 17.6187 3.94787 18.6182 4.69604 19.3533C5.4442 20.0884 6.45115 20.5002 7.5 20.5H16.5L16.617 20.498M20.33 17.657L20.242 17.553L17.776 14.577C17.5889 14.3513 17.3544 14.1694 17.0892 14.0443C16.824 13.9193 16.5346 13.8541 16.2414 13.8533C15.9482 13.8525 15.6584 13.9162 15.3925 14.0399C15.1267 14.1636 14.8913 14.3442 14.703 14.569L13.391 16.135L13.177 16.396M20.33 17.657C20.0874 18.4603 19.5984 19.166 18.932 19.676C18.2657 20.1861 17.4558 20.4736 16.617 20.498M13.177 16.396L16.524 20.392L16.617 20.498M13.177 16.396L9.95 12.543C9.76228 12.319 9.52774 12.1388 9.26288 12.0152C8.99802 11.8916 8.70929 11.8275 8.417 11.8275C8.12471 11.8275 7.83598 11.8916 7.57112 12.0152C7.30626 12.1388 7.07172 12.319 6.884 12.543L3.678 16.37L3.501 16.571" stroke="white" stroke-width="1.5" stroke-linecap="round" stroke-linejoin="round"/>
    <path d="M15.0908 7.90894C15.6431 7.90894 16.0908 8.35665 16.0908 8.90894C16.0908 9.46122 15.6431 9.90894 15.0908 9.90894C14.5385 9.90894 14.0908 9.46122 14.0908 8.90894C14.0908 8.35665 14.5385 7.90894 15.0908 7.90894Z" fill="white" stroke="#484C52"/>
</svg>
