<svg width="24" height="24" viewBox="0 0 24 24" fill="none" xmlns="http://www.w3.org/2000/svg">
    <path d="M16.9258 2C19.4453 2.00021 21.5 4.00056 21.5 6.44043V17.5596C21.5 20.0096 19.4446 22 16.9043 22H11.876C9.35643 22 7.29119 20.0102 7.29102 17.5703V12.7695H13.6934L12.041 14.3701C11.7313 14.6701 11.7312 15.16 12.041 15.46C12.1959 15.61 12.4028 15.6797 12.6094 15.6797C12.8054 15.6796 13.0122 15.6098 13.167 15.46L16.1816 12.5498C16.3365 12.4098 16.4189 12.21 16.4189 12C16.4189 11.8 16.3365 11.6 16.1816 11.46L13.167 8.5498C12.8572 8.24984 12.3508 8.24991 12.041 8.5498C11.7313 8.84975 11.7314 9.33963 12.041 9.63965L13.6934 11.2305H7.29102V6.4502C7.29102 4.00031 9.35592 2.00018 11.8857 2H16.9258ZM7.29004 11.2295V12.7695H3.28125C2.85512 12.7694 2.50005 12.4299 2.5 12C2.5 11.5801 2.85509 11.2296 3.28125 11.2295H7.29004Z" fill="black"/>
</svg>
